HIERARCHY
ROOT Hips
{
  OFFSET 90.7885 88.945 -76.2838
  CHANNELS 6 Xposition Yposition Zposition Zrotation Xrotation Yrotation
  JOINT LeftUpLeg
  {
    OFFSET 8.64259 1.95398 -2.38835
    CHANNELS 3 Zrotation Xrotation Yrotation
    JOINT LeftLeg
    {
      OFFSET 43.7702 0 0
      CHANNELS 3 Zrotation Xrotation Yrotation
      JOINT LeftFoot
      {
        OFFSET 40.6238 0 0
        CHANNELS 3 Zrotation Xrotation Yrotation
        JOINT LeftToeBase
        {
          OFFSET 12.7242 0 0
          CHANNELS 3 Zrotation Xrotation Yrotation
          End Site
          {
            OFFSET 0 0 0
          }
        }
      }
    }
  }
  JOINT RightUpLeg
  {
    OFFSET -8.2249 1.95398 -2.59336
    CHANNELS 3 Zrotation Xrotation Yrotation
    JOINT RightLeg
    {
      OFFSET 43.5653 0 0
      CHANNELS 3 Zrotation Xrotation Yrotation
      JOINT RightFoot
      {
        OFFSET 40.6238 0 0
        CHANNELS 3 Zrotation Xrotation Yrotation
        JOINT RightToeBase
        {
          OFFSET 12.7242 0 0
          CHANNELS 3 Zrotation Xrotation Yrotation
          End Site
          {
            OFFSET 0 0 0
          }
        }
      }
    }
  }
  JOINT Spine
  {
    OFFSET 0.165834 0.87714 6.61349
    CHANNELS 3 Zrotation Xrotation Yrotation
    JOINT Spine1
    {
      OFFSET 7.38963 1.71661e-005 0
      CHANNELS 3 Zrotation Xrotation Yrotation
      JOINT Spine2
      {
        OFFSET 11.9445 1.14441e-005 0
        CHANNELS 3 Zrotation Xrotation Yrotation
        JOINT Spine3
        {
          OFFSET 14.7254 4.19617e-005 0
          CHANNELS 3 Zrotation Xrotation Yrotation
          JOINT Spine4
          {
            OFFSET 10.9679 0 0
            CHANNELS 3 Zrotation Xrotation Yrotation
            JOINT RightShoulder
            {
              OFFSET 2.46616 -1.6653 3.69651
              CHANNELS 3 Zrotation Xrotation Yrotation
              JOINT RightArm
              {
                OFFSET 13.0012 0 0
                CHANNELS 3 Zrotation Xrotation Yrotation
                JOINT RightForeArm
                {
                  OFFSET 28.7848 1.52588e-005 0
                  CHANNELS 3 Zrotation Xrotation Yrotation
                  JOINT RightHand
                  {
                    OFFSET 26.5688 1.52588e-005 0
                    CHANNELS 3 Zrotation Xrotation Yrotation
                    End Site
                    {
                      OFFSET 0 0 0
                    }
                  }
                }
              }
            }
            JOINT LeftShoulder
            {
              OFFSET 2.38034 -1.29275 -3.7523
              CHANNELS 3 Zrotation Xrotation Yrotation
              JOINT LeftArm
              {
                OFFSET 16.3182 6.10352e-005 0
                CHANNELS 3 Zrotation Xrotation Yrotation
                JOINT LeftForeArm
                {
                  OFFSET 27.0901 0 0
                  CHANNELS 3 Zrotation Xrotation Yrotation
                  JOINT LeftHand
                  {
                    OFFSET 24.5451 1.52588e-005 0
                    CHANNELS 3 Zrotation Xrotation Yrotation
                    End Site
                    {
                      OFFSET 0 0 0
                    }
                  }
                }
              }
            }
            JOINT Neck
            {
              OFFSET 5.0226 -0.0266342 0
              CHANNELS 3 Zrotation Xrotation Yrotation
              JOINT Head
              {
                OFFSET 6.69363 2.86102e-005 0
                CHANNELS 3 Zrotation Xrotation Yrotation
                End Site
                {
                  OFFSET 0 0 0
                }
              }
            }
          }
        }
      }
    }
  }
}
MOTION
Frames:	6
Frame Time:	0.0416667
302.953 83.7202 317.869 -77.7285 6.54534 -89.4437 -143.004 2.02362 125.4 1.67858 9.97377 -22.1743 13.0587 -54.436 22.2652 137.042 -22.7434 -33.7215 148.811 43.5565 98.5885 -65.314 -2.13853 11.8544 96.7457 -16.1695 -1.61206 11.1124 -2.34052 6.88801 -5.90728 14.8683 -94.3001 -3.62805 -13.1814 -9.58749 -15.2626 -13.5888 -8.99503 -37.841 -9.71549 -13.0882 -17.8284 -9.71547 -13.0882 79.0073 -57.2309 -114.554 -12.3189 -9.71785 -23.9415 -0.410509 -19.2254 -26.3418 -23.9954 -0.73115 -5.92035 133.431 -77.5478 -54.9604 20.0219 -48.7024 -95.2492 42.6108 5.25713 -75.0981 8.99698 0.14689 -1.98512 142.306 -15.1046 -16.2469 -65.7257 25.9648 7.08662 
295.048 83.5971 311.749 -74.7382 20.5849 -91.5432 -171.184 4.23655 103.854 -49.3266 46.6863 9.85133 25.633 -6.70147 -9.05651 155.739 21.7926 57.1445 158.151 38.5293 102.131 -64.2056 3.62807 7.29098 102.898 -16.9924 6.73246 12.9547 -1.04643 4.61205 -4.46691 13.9354 -93.4889 -1.43037 -10.1377 -7.46205 -13.0807 -10.4553 -7.00744 -35.6347 -7.43854 -10.1549 -15.622 -7.43854 -10.1549 86.2011 -49.0389 -106.877 -2.15895 -8.05442 -28.7572 -19.101 -46.9681 -34.5767 -17.3411 -13.2361 61.1024 91.8606 -84.1434 -92.5022 33.8418 -32.3322 -72.581 45.3053 4.22789 -74.5513 11.3202 0.342392 -0.700395 136.381 -5.58207 -13.3666 -58.6279 24.0342 2.25558 
288.935 80.0591 307.064 -69.5577 36.3941 -95.5687 -172.094 13.9229 100.609 -75.6481 26.5631 6.29347 67.6564 3.54475 10.5972 21.676 32.666 -27.1411 167.013 38.1167 103.761 -68.6761 4.19546 4.32947 114.253 -19.2508 13.4357 13.7828 -0.657656 3.8588 -2.19282 12.3734 -92.5924 1.95854 -5.37676 -5.17738 -9.71089 -5.59914 -4.93594 -32.207 -3.57605 -6.55015 -12.1944 -3.57605 -6.55015 93.9931 -39.9513 -96.3762 14.376 -0.424292 -38.6279 170.07 38.2633 -166.694 -15.1073 -39.0754 -165.111 4.40845 -85.3181 -177.889 34.7884 -4.92817 -49.8308 63.3087 -1.52997 -81.3024 7.83431 0.465217 1.82794 122.653 8.17589 -5.92661 -51.6561 19.0015 -4.96208 
280.98 79.0947 300.529 -65.1571 44.0305 -101.379 -171.332 37.0383 94.7384 -97.8484 5.90672 5.32247 69.9761 4.95842 8.32616 30.4148 8.55727 -13.9399 172.397 31.0928 100.05 -65.638 -0.861471 2.0197 119.847 -22.1753 13.0842 15.248 -1.78272 5.68624 -0.456793 10.3197 -91.8378 6.18884 -1.68733 -3.55017 -5.48552 -1.84186 -3.47261 -27.9843 -0.543226 -3.89262 -7.97159 -0.543227 -3.89263 95.362 -26.2557 -96.9628 27.9374 0.071672 -43.4312 -4.57073 28.7118 -6.075 -23.2675 24.329 -41.0969 -66.8968 -67.3078 111.013 11.6286 26.9289 -14.8444 65.5436 -8.78712 -83.5971 3.91307 0.116186 -1.22275 93.5313 16.0618 6.06376 -40.7292 10.2665 -8.28684 
271.946 79.2941 291.952 -61.2722 45.8651 -108.535 -174.074 59.972 92.3391 -101.351 -2.3614 5.13277 78.7638 8.44358 4.17244 29.9101 7.53097 -11.3652 174.161 20.478 94.6959 -57.3947 -4.59511 0.25928 118.012 -23.9397 8.93236 22.9481 -1.67352 4.69266 1.21994 8.29467 -90.7184 10.2984 2.1021 -1.60821 -1.372 2.02929 -1.69918 -23.9177 2.48818 -0.90189 -3.90501 2.48821 -0.901882 92.717 -17.6134 -105.986 22.1773 -5.4345 -36.4565 15.8567 19.4855 0.00901699 -26.019 11.2988 -43.7466 -82.9886 -39.0661 88.1033 -34.2479 42.3372 38.2602 71.3865 -21.2827 -82.1544 10.9716 0.335896 -0.725802 51.4792 5.14121 11.0121 -18.7804 -1.38563 -3.65154 
260.463 82.3144 279.536 -62.5194 36.9099 -111.059 179.06 73.5514 89.2951 -85.4504 2.99938 4.18474 81.5544 9.79825 0.754549 30.2398 5.6823 -8.71136 172.076 5.56184 92.4931 -40.0235 -10.0132 -0.00293375 89.7755 -15.0862 -4.02776 40.6304 -4.09803 9.49643 1.80325 7.52548 -89.9692 11.8614 3.60317 -0.263755 0.195378 3.58806 -0.422281 -22.3796 3.51583 0.832675 -2.36693 3.51584 0.832668 94.5549 -9.22565 -105.307 13.2094 -31.0774 -31.5554 36.8177 55.1483 -2.91579 -25.0576 15.6159 -52.132 -84.6665 -22.3425 81.9359 -54.0892 45.7874 58.9114 74.8719 -27.8316 -78.7826 13.703 0.201443 -2.29848 35.3884 -6.24087 9.2668 -8.591 -10.0332 -0.282891 
